<svg xmlns="http://www.w3.org/2000/svg" viewBox="0 0 100 100" width="100%" height="100%">
  <defs>
    <mask id="box-holes">
      <rect x="0" y="0" width="100" height="100" fill="white" />
      
      <rect x="27" y="28" width="46" height="6" fill="black" />
      
      <rect x="42" y="54" width="16" height="5" fill="black" />
    </mask>
  </defs>

  <circle cx="50" cy="50" r="50" fill="#5C6BC0" />

  <path d="M 28 22 
           L 72 22 
           A 4 4 0 0 1 76 26 
           L 76 36 
           A 2 2 0 0 1 74 38 
           L 73 38 
           L 73 74 
           A 4 4 0 0 1 69 78 
           L 31 78 
           A 4 4 0 0 1 27 74 
           L 27 38 
           L 26 38 
           A 2 2 0 0 1 24 36 
           L 24 26 
           A 4 4 0 0 1 28 22 Z" 
        fill="#FFFFFF" 
        mask="url(#box-holes)" />
</svg>
